<?xml version="1.0" encoding="UTF-8" standalone="no"?>
<svg
   xmlns:dc="http://purl.org/dc/elements/1.1/"
   xmlns:cc="http://creativecommons.org/ns#"
   xmlns:rdf="http://www.w3.org/1999/02/22-rdf-syntax-ns#"
   xmlns:svg="http://www.w3.org/2000/svg"
   xmlns="http://www.w3.org/2000/svg"
   height="54.900002"
   width="54.900002"
   xml:space="preserve"
   viewBox="0 0 54.900002 54.900002"
   y="0px"
   x="0px"
   id="Layer_1"
   version="1.1">
   <metadata
   id="metadata12">
      <rdf:RDF>
         <cc:Work
   rdf:about="">
            <dc:format>image/svg+xml</dc:format>
            <dc:type
   rdf:resource="http://purl.org/dc/dcmitype/StillImage" />
            <dc:title></dc:title>
         </cc:Work>
      </rdf:RDF>
   </metadata>
   <defs
   id="defs10" />
   <style
   id="style2"
   type="text/css">
	.st0{fill:#346DA6;}
	.st1{fill:#FFFFFF;}
   </style>
   <g
   transform="matrix(0.81967213,0,0,0.81967213,-11.853279,-11.853279)"
   id="XMLID_1_">
      <path
   d="m 23.2,20.5 h 49.5 c 1.5,0 2.7,1.2 2.7,2.7 v 49.5 c 0,1.5 -1.2,2.7 -2.7,2.7 H 23.2 c -1.5,0 -2.7,-1.2 -2.7,-2.7 V 23.2 c 0,-1.5 1.2,-2.7 2.7,-2.7 z"
   class="st0"
   id="XMLID_3_" />
      <path
   d="M 40.6,60.7 V 43.9 h -5.2 v 16.8 z m 0,-22.7 c 0,-1.5 -1,-2.6 -2.7,-2.6 -1.6,0 -2.7,1.1 -2.7,2.6 0,1.5 1,2.6 2.6,2.6 v 0 c 1.7,0 2.8,-1.2 2.8,-2.6 z M 49,60.7 v -9.6 c 0,-0.5 0,-1 0.2,-1.4 0.4,-1 1.3,-2.1 2.9,-2.1 2.1,0 3.3,1.2 3.3,3.5 v 9.6 h 5.2 v -9.8 c 0,-5.3 -2.8,-7.7 -6.5,-7.7 -3.1,0 -4.4,1.7 -5.2,2.9 v -2.2 h -5.2 c 0.1,1.6 0,16.9 0,16.9 H 49 Z"
   class="st1"
   id="XMLID_7_" />
   </g>
</svg>
