<?xml version="1.0" encoding="UTF-8" standalone="no"?>
<svg xmlns:dc="http://purl.org/dc/elements/1.1/"
   xmlns:cc="http://creativecommons.org/ns#"
   xmlns:rdf="http://www.w3.org/1999/02/22-rdf-syntax-ns#"
   xmlns:svg="http://www.w3.org/2000/svg"
   xmlns="http://www.w3.org/2000/svg" height="120" width="840" id="Layer_1" data-name="Layer 1" viewBox="0 0 840 120" version="1.1">
   <metadata id="metadata51">
      <rdf:RDF>
         <cc:Work rdf:about="">
            <dc:format>image/svg+xml</dc:format>
            <dc:type rdf:resource="http://purl.org/dc/dcmitype/StillImage" />
            <dc:title>TYP logo</dc:title>
         </cc:Work>
      </rdf:RDF>
   </metadata>
   <defs id="defs4">
      <style id="style2">.cls-1{fill:#50a3a2;}.cls-2{fill:#fff;}</style>
   </defs>
   <title id="title6">TYP logo</title>
   <path d="m 267.11013,30.04918 h 37.5405 V 41.17377 H 292.3403 V 89.370492 H 279.1107 V 41.17377 h -11.99058 z" id="path8" style="opacity:0.998;fill:#ffffff;fill-opacity:1;stroke-width:0.99138" />
   <path d="m 307.96803,32.252459 h 11.99057 v 19.318033 q 3.21748,-5.340984 10.52174,-5.340984 a 10.701592,10.534426 0 0 1 6.90457,1.967213 8.8430519,8.704918 0 0 1 3.20748,5.085246 45.724074,45.009836 0 0 1 0.67947,8.921312 v 27.09836 h -11.99058 v -27.09836 q 0,-4.140984 -0.78938,-5.508197 c -0.51959,-0.904918 -1.59874,-1.357377 -3.24745,-1.357377 a 5.5356506,5.4491803 0 0 0 -3.86696,1.298361 q -1.43887,1.29836 -1.43887,5.901639 v 26.793443 h -11.99058 z" id="path10" style="opacity:0.998;fill:#ffffff;fill-opacity:1;stroke-width:0.99138" />
   <path d="m 382.47948,70.180328 h -22.47234 v 2.331147 q 0,5.665574 1.56876,7.583607 a 4.9960745,4.9180328 0 0 0 4.13675,1.918033 q 5.45572,0 6.13518,-7.190164 l 10.66163,0.668852 q -2.84777,14.754099 -16.98666,14.754099 -8.74313,0 -13.27956,-5.813115 -4.53644,-5.813115 -4.59639,-15.580328 0,-10.986885 4.81621,-16.790164 a 15.817572,15.570492 0 0 1 12.91985,-5.832787 16.047391,15.796721 0 0 1 12.19043,5.12459 q 4.90614,5.144263 4.90614,18.82623 z m -11.30112,-6.816394 c 0,-0.501639 0,-0.895082 0,-1.170491 q 0,-8.163935 -5.58561,-8.154099 -5.58561,0.0098 -5.54564,9.32459 z" id="path12" style="opacity:0.998;fill:#ffffff;fill-opacity:1;stroke-width:0.99138" />
   <path d="m 398.83663,32.252459 h 14.03897 l 8.17358,20.803279 8.75312,-20.803279 h 12.45022 l -16.10735,32.95082 V 89.331148 H 413.40518 V 65.203279 Z" id="path14" style="opacity:0.998;fill:#ffffff;fill-opacity:1;stroke-width:0.99138" />
   <path d="m 473.85768,68.213115 q 0,22.003278 -17.39633,21.993442 -17.39633,-0.0098 -17.4363,-21.993442 0,-21.983607 17.4363,-21.983607 17.4363,0 17.39633,21.983607 z m -12.36029,0 q 0,-8.085246 -1.12911,-10.927869 a 3.9968596,3.9344262 0 0 0 -3.90693,-2.852459 3.9968596,3.9344262 0 0 0 -3.89694,2.704918 q -1.18906,2.695082 -1.17907,11.07541 c 0,5.17377 0.33973,8.754098 0.99921,10.770492 a 4.1767183,4.1114754 0 0 0 8.04368,0 q 1.05917,-2.95082 1.06916,-10.75082 z" id="path16" style="opacity:0.998;fill:#ffffff;fill-opacity:1;stroke-width:0.99138" />
   <path d="m 480.27264,47.095082 h 11.99058 v 27.127869 q 0,4.121311 0.75941,5.488524 c 0.50959,0.924591 1.61872,1.386886 3.31739,1.386886 a 4.9960745,4.9180328 0 0 0 3.54721,-1.131148 5.0860039,5.0065574 0 0 0 1.45886,-3.118033 q 0.2498,-1.967213 0.25979,-8.193442 V 47.095082 h 11.99058 v 42.236066 h -11.28114 v -5.724591 q -2.54799,4.308197 -5.07601,5.478689 a 13.789166,13.57377 0 0 1 -5.99529,1.170492 c -3.08757,0 -5.45571,-0.619672 -7.09442,-1.878689 a 8.5732639,8.4393443 0 0 1 -3.15752,-4.770492 41.84712,41.193443 0 0 1 -0.71944,-8.990164 z" id="path18" style="opacity:0.998;fill:#ffffff;fill-opacity:1;stroke-width:0.99138" />
   <path d="m 524.14817,34.131148 11.64085,-0.373771 v 13.337705 h 7.90379 v 9.285246 h -7.90379 v 15.511475 a 52.95839,52.131148 0 0 0 0.18985,5.586886 3.3673542,3.3147541 0 0 0 1.279,2.134426 5.8653915,5.7737705 0 0 0 3.63714,0.855737 c 0.89929,0 1.99843,0 3.39733,-0.08852 v 8.95082 a 33.533652,33.009836 0 0 1 -7.31425,0.875409 q -5.42574,0 -8.32346,-2.045901 a 9.1328242,8.9901639 0 0 1 -3.6971,-5.144263 44.065377,43.377049 0 0 1 -0.80936,-9.836065 v -16.8 h -4.75626 v -9.285246 h 4.75626 z" id="path20" style="opacity:0.998;fill:#ffffff;fill-opacity:1;stroke-width:0.99138" />
   <path d="m 549.0486,32.252459 h 11.99058 v 19.318033 q 3.20748,-5.340984 10.51174,-5.340984 a 10.701592,10.534426 0 0 1 6.90458,1.967213 8.8430519,8.704918 0 0 1 3.20748,5.085246 45.724074,45.009836 0 0 1 0.67947,8.921312 v 27.09836 h -11.99058 v -27.09836 q 0,-4.140984 -0.78938,-5.508197 c -0.5196,-0.904918 -1.60874,-1.357377 -3.24745,-1.357377 a 5.5356506,5.4491803 0 0 0 -3.86696,1.298361 q -1.43887,1.29836 -1.43887,5.901639 v 26.793443 h -11.99058 z" id="path22" style="opacity:0.998;fill:#ffffff;fill-opacity:1;stroke-width:0.99138" />
   <path class="cls-1" d="m 607.84241,32.252459 h 16.6669 a 42.396688,41.734426 0 0 1 11.78075,1.24918 12.819927,12.619672 0 0 1 6.9945,5.67541 20.294055,19.977049 0 0 1 2.84776,10.927869 21.692956,21.354098 0 0 1 -2.29819,10.377049 13.599315,13.386885 0 0 1 -6.34501,5.90164 q -4.05682,1.829508 -12.47021,1.819672 h -4.50646 v 21.118032 h -12.67004 z m 12.73999,9.236066 V 58.42623 h 3.99686 c 3.47727,0 5.7255,-0.796722 6.72472,-2.390164 a 11.740775,11.557377 0 0 0 1.50881,-6.196722 10.651631,10.485246 0 0 0 -1.15909,-5.222951 5.4856898,5.4 0 0 0 -2.72786,-2.557377 12.989794,12.786885 0 0 0 -4.34658,-0.570491 z" id="path24" style="stroke-width:0.99138" />
   <path class="cls-1" d="m 651.2583,47.095082 h 10.53172 v 10.2 q 2.84776,-10.740984 10.15203,-10.740984 a 11.381058,11.203279 0 0 1 1.99843,0.206558 v 11.49836 a 17.726072,17.44918 0 0 0 -1.99843,-0.167213 q -8.75313,0 -8.75313,13.052459 v 18.186886 h -11.99058 z" id="path26" style="stroke-width:0.99138" />
   <path class="cls-1" d="m 711.79074,68.213115 q 0,22.003278 -17.39634,21.993442 -17.39633,-0.0098 -17.4363,-21.993442 0,-21.983607 17.4363,-21.983607 17.4363,0 17.39634,21.983607 z m -12.36029,0 q 0,-8.085246 -1.11912,-10.927869 a 4.1067732,4.042623 0 0 0 -7.80387,-0.147541 q -1.19906,2.695082 -1.18907,11.07541 c 0,5.17377 0.33974,8.754098 0.99922,10.770492 a 4.1667261,4.1016393 0 0 0 7.99372,0 q 1.1391,-2.95082 1.1391,-10.75082 z" id="path28" style="stroke-width:0.99138" />
   <path class="cls-1" d="m 719.18493,47.095082 h 11.99057 v 40.859016 a 49.75091,48.97377 0 0 1 -0.72942,9.836066 8.4233816,8.2918033 0 0 1 -3.4373,5.163936 11.640854,11.459016 0 0 1 -6.92456,1.89836 42.546571,41.881967 0 0 1 -6.41496,-0.58033 v -9.659015 a 11.990579,11.803279 0 0 0 1.56877,0.118033 c 1.75862,0 2.85775,-0.432787 3.29741,-1.288525 0.43965,-0.855738 0.65948,-2.793443 0.65948,-5.773771 z m 12.06052,-3.472131 H 719.095 V 31.957377 h 12.15045 z" id="path30" style="stroke-width:0.99138" />
   <path class="cls-1" d="m 772.543,70.180328 h -22.47234 v 2.331147 q 0,5.665574 1.55877,7.583607 a 4.9960745,4.9180328 0 0 0 4.10678,1.918033 c 3.64713,0 5.68553,-2.4 6.14517,-7.190164 l 10.66162,0.668852 q -2.84776,14.754099 -16.98665,14.754099 -8.74313,0 -13.27957,-5.813115 -4.53643,-5.813115 -4.56641,-15.580328 0,-10.986885 4.80622,-16.790164 a 15.847548,15.6 0 0 1 12.88988,-5.832787 16.08736,15.836066 0 0 1 12.20041,5.12459 q 4.93612,5.144263 4.93612,18.82623 z m -11.30112,-6.816394 c 0,-0.501639 0,-0.895082 0,-1.170491 q 0,-8.163935 -5.58561,-8.154099 -5.58561,0.0098 -5.54564,9.32459 z" id="path32" style="stroke-width:0.99138" />
   <path class="cls-1" d="m 811.58233,62.655738 -11.13126,0.413114 A 15.987438,15.737705 0 0 0 799.17208,57.167213 3.5472129,3.4918033 0 0 0 795.73478,55.2 q -5.99529,0 -5.99529,12.462295 0,7.229508 1.46885,10.121312 a 4.6763257,4.6032787 0 0 0 4.3166,2.872131 q 4.49647,0 4.92613,-7.868853 l 11.13126,0.708197 q -1.48883,16.642623 -16.8068,16.642623 -8.2735,0 -12.66005,-5.498361 -4.38655,-5.49836 -4.39654,-16.367213 0,-10.819672 4.60638,-16.436065 4.60638,-5.616394 12.91984,-5.606558 15.0182,0 16.33717,16.42623 z" id="path34" style="stroke-width:0.99138" />
   <path class="cls-1" d="m 819.86582,34.131148 11.64085,-0.373771 v 13.337705 h 7.8938 v 9.285246 h -7.8938 v 15.511475 a 50.300478,49.514754 0 0 0 0.18985,5.586886 3.3173935,3.2655738 0 0 0 1.26901,2.134426 5.9053601,5.8131148 0 0 0 3.63714,0.855737 c 0.89929,0 1.99843,0 3.39733,-0.08852 v 8.95082 a 33.453715,32.931148 0 0 1 -7.30426,0.875409 q -5.44572,0 -8.33345,-2.045901 a 9.182785,9.0393443 0 0 1 -3.6971,-5.144263 44.804796,44.104918 0 0 1 -0.79937,-9.836065 v -16.8 h -4.75626 v -9.285246 h 4.75626 z" id="path36" style="stroke-width:0.99138" />
   <rect class="cls-1" x="0" y="0" width="245.80687" height="120" id="rect38" style="stroke-width:0.99138" />
   <path class="cls-2" d="M 34.882592,33.727869 H 85.992435 V 46.947541 H 68.845907 V 87.27541 H 52.02912 V 46.947541 H 34.882592 Z" id="path40" style="stroke-width:0.99138" />
   <path class="cls-2" d="M 88.100778,33.727869 H 106.7761 l 10.99137,18.068852 10.99136,-18.068852 h 18.57541 L 126.14089,64.84918 V 87.285246 H 109.29413 V 64.84918 Z" id="path42" style="stroke-width:0.99138" />
   <path class="cls-2" d="m 152.64007,33.727869 h 27.97802 q 9.13282,0 13.67925,4.268852 4.54643,4.268853 4.54643,12.167213 0,8.114755 -4.99608,12.678689 -4.99607,4.563934 -15.11812,4.563934 h -9.21276 v 19.878689 h -16.88673 z m 16.88673,22.829508 h 4.12676 q 4.85618,0 6.82464,-1.662295 a 5.4357291,5.3508197 0 0 0 1.99843,-4.24918 6.0452502,5.9508197 0 0 0 -1.70866,-4.278689 q -1.70866,-1.75082 -6.41496,-1.75082 h -4.79623 z" id="path44" style="stroke-width:0.99138" />
   <path class="cls-2" d="m 192.35886,72.383607 h 16.13732 v 14.901639 h -16.13732 z" id="path46" style="stroke-width:0.99138" />
</svg>
